<svg width="189" height="65" viewBox="0 0 189 65" fill="none" xmlns="http://www.w3.org/2000/svg">
<path d="M37.2418 59.65C33.7318 59.65 30.4384 58.9783 27.3618 57.635C24.3284 56.2917 21.6418 54.4283 19.3018 52.045C17.0051 49.6183 15.2068 46.845 13.9068 43.725C12.6068 40.5617 11.9568 37.1817 11.9568 33.585C11.9568 30.0317 12.5851 26.695 13.8418 23.575C15.1418 20.4117 16.9401 17.6383 19.2368 15.255C21.5768 12.8717 24.2634 11.0083 27.2968 9.665C30.3734 8.27833 33.6884 7.585 37.2418 7.585C40.3618 7.585 43.2001 8.04 45.7568 8.95C48.3134 9.86 50.7834 11.3117 53.1668 13.305C53.5568 13.6083 53.7734 13.9767 53.8168 14.41C53.9034 14.8 53.8601 15.19 53.6868 15.58C53.5134 15.9267 53.2534 16.1867 52.9068 16.36C52.8201 16.7067 52.6034 16.9667 52.2568 17.14C51.9101 17.3133 51.4984 17.3783 51.0218 17.335C50.5884 17.2917 50.1551 17.0967 49.7218 16.75C48.0318 15.2767 46.1901 14.1933 44.1968 13.5C42.2034 12.7633 39.8851 12.395 37.2418 12.395C34.4251 12.395 31.7818 12.9583 29.3118 14.085C26.8851 15.2117 24.7401 16.75 22.8768 18.7C21.0134 20.65 19.5401 22.9033 18.4568 25.46C17.4168 28.0167 16.8968 30.725 16.8968 33.585C16.8968 36.5317 17.4168 39.2833 18.4568 41.84C19.5401 44.3967 21.0134 46.65 22.8768 48.6C24.7401 50.55 26.8851 52.0883 29.3118 53.215C31.7818 54.2983 34.4251 54.84 37.2418 54.84C39.6251 54.84 41.8784 54.45 44.0018 53.67C46.1251 52.89 48.1401 51.7633 50.0468 50.29C50.5668 49.8567 51.1084 49.6833 51.6718 49.77C52.2784 49.8567 52.7984 50.1167 53.2318 50.55C53.6651 50.9833 53.8818 51.5467 53.8818 52.24C53.8818 52.5867 53.8168 52.9117 53.6868 53.215C53.6001 53.475 53.4268 53.7567 53.1668 54.06C50.9568 56.0967 48.4868 57.5483 45.7568 58.415C43.0268 59.2383 40.1884 59.65 37.2418 59.65Z" fill="#495EFD"/>
<path d="M27.3618 57.635L27.1593 58.0922L27.1617 58.0932L27.3618 57.635ZM19.3018 52.045L18.9386 52.3887L18.945 52.3953L19.3018 52.045ZM13.9068 43.725L13.4443 43.9151L13.4452 43.9173L13.9068 43.725ZM13.8418 23.575L13.3793 23.3849L13.378 23.3882L13.8418 23.575ZM19.2368 15.255L18.88 14.9047L18.8767 14.9081L19.2368 15.255ZM27.2968 9.665L27.4992 10.1222L27.5022 10.1208L27.2968 9.665ZM45.7568 8.95L45.9244 8.47895H45.9244L45.7568 8.95ZM53.1668 13.305L52.846 13.6885L52.8528 13.6942L52.8598 13.6997L53.1668 13.305ZM53.8168 14.41L53.3192 14.4597L53.3222 14.4894L53.3287 14.5185L53.8168 14.41ZM53.6868 15.58L54.134 15.8036L54.1391 15.7934L54.1437 15.7831L53.6868 15.58ZM52.9068 16.36L52.6832 15.9128L52.4775 16.0156L52.4217 16.2387L52.9068 16.36ZM52.2568 17.14L52.0332 16.6928L52.0332 16.6928L52.2568 17.14ZM51.0218 17.335L50.972 17.8325L50.9765 17.8329L51.0218 17.335ZM49.7218 16.75L49.3932 17.1269L49.4012 17.1338L49.4094 17.1404L49.7218 16.75ZM44.1968 13.5L44.0234 13.9691L44.0325 13.9722L44.1968 13.5ZM29.3118 14.085L29.1043 13.6301L29.1012 13.6315L29.3118 14.085ZM22.8768 18.7L23.2383 19.0454L22.8768 18.7ZM18.4568 25.46L17.9963 25.2649L17.9936 25.2716L18.4568 25.46ZM18.4568 41.84L17.9936 42.0284L17.9964 42.0351L18.4568 41.84ZM22.8768 48.6L23.2383 48.2546L22.8768 48.6ZM29.3118 53.215L29.1012 53.6686L29.1109 53.6729L29.3118 53.215ZM44.0018 53.67L43.8293 53.2007L44.0018 53.67ZM50.0468 50.29L50.3525 50.6856L50.3598 50.68L50.3668 50.6741L50.0468 50.29ZM51.6718 49.77L51.5957 50.2642L51.6011 50.265L51.6718 49.77ZM53.2318 50.55L53.5853 50.1964L53.2318 50.55ZM53.6868 53.215L53.2272 53.018L53.219 53.0372L53.2124 53.0569L53.6868 53.215ZM53.1668 54.06L53.5056 54.4277L53.5272 54.4077L53.5464 54.3854L53.1668 54.06ZM45.7568 58.415L45.9011 58.8938L45.908 58.8916L45.7568 58.415ZM37.2418 59.15C33.7974 59.15 30.5725 58.4913 27.5618 57.1768L27.1617 58.0932C30.3043 59.4654 33.6661 60.15 37.2418 60.15V59.15ZM27.5642 57.1778C24.589 55.8602 21.9546 54.0333 19.6585 51.6947L18.945 52.3953C21.3289 54.8234 24.0678 56.7231 27.1593 58.0922L27.5642 57.1778ZM19.6649 51.7013C17.4104 49.3192 15.6452 46.5973 14.3683 43.5327L13.4452 43.9173C14.7683 47.0927 16.5997 49.9174 18.9386 52.3887L19.6649 51.7013ZM14.3692 43.5349C13.0953 40.435 12.4568 37.1199 12.4568 33.585H11.4568C11.4568 37.2434 12.1182 40.6883 13.4443 43.9151L14.3692 43.5349ZM12.4568 33.585C12.4568 30.092 13.0741 26.8191 14.3056 23.7618L13.378 23.3882C12.0961 26.5709 11.4568 29.9713 11.4568 33.585H12.4568ZM14.3042 23.7651C15.5811 20.658 17.3453 17.9384 19.5968 15.6019L18.8767 14.9081C16.5349 17.3383 14.7024 20.1653 13.3793 23.3849L14.3042 23.7651ZM19.5935 15.6053C21.8896 13.2667 24.524 11.4398 27.4992 10.1222L27.0943 9.20782C24.0028 10.5769 21.2639 12.4766 18.88 14.9047L19.5935 15.6053ZM27.5022 10.1208C30.5109 8.76481 33.7554 8.085 37.2418 8.085V7.085C33.6214 7.085 30.236 7.79185 27.0913 9.20916L27.5022 10.1208ZM37.2418 8.085C40.313 8.085 43.0936 8.53284 45.5891 9.42105L45.9244 8.47895C43.3065 7.54716 40.4105 7.085 37.2418 7.085V8.085ZM45.5891 9.42105C48.0825 10.3085 50.5016 11.7278 52.846 13.6885L53.4875 12.9215C51.0653 10.8956 48.5444 9.41147 45.9244 8.47895L45.5891 9.42105ZM52.8598 13.6997C53.1577 13.9314 53.2914 14.1815 53.3192 14.4597L54.3143 14.3602C54.2554 13.7718 53.9558 13.2853 53.4737 12.9103L52.8598 13.6997ZM53.3287 14.5185C53.3905 14.7966 53.3629 15.0777 53.2299 15.3769L54.1437 15.7831C54.3573 15.3023 54.4164 14.8034 54.3049 14.3015L53.3287 14.5185ZM53.2395 15.3564C53.1146 15.6063 52.9331 15.7878 52.6832 15.9128L53.1304 16.8072C53.5738 16.5855 53.9123 16.247 54.134 15.8036L53.2395 15.3564ZM52.4217 16.2387C52.3737 16.4308 52.2618 16.5785 52.0332 16.6928L52.4804 17.5872C52.9451 17.3549 53.2665 16.9826 53.3918 16.4813L52.4217 16.2387ZM52.0332 16.6928C51.7872 16.8158 51.4728 16.8739 51.067 16.8371L50.9765 17.8329C51.524 17.8827 52.033 17.8109 52.4804 17.5872L52.0332 16.6928ZM51.0715 16.8375C50.7574 16.8061 50.4126 16.6624 50.0341 16.3596L49.4094 17.1404C49.8976 17.531 50.4195 17.7773 50.972 17.8325L51.0715 16.8375ZM50.0503 16.3731C48.3152 14.8604 46.4184 13.7434 44.361 13.0277L44.0325 13.9722C45.9618 14.6433 47.7483 15.6929 49.3932 17.1269L50.0503 16.3731ZM44.3701 13.031C42.3096 12.2695 39.9304 11.895 37.2418 11.895V12.895C39.8398 12.895 42.0973 13.2571 44.0234 13.969L44.3701 13.031ZM37.2418 11.895C34.3562 11.895 31.6419 12.4726 29.1043 13.6301L29.5193 14.5399C31.9217 13.4441 34.4939 12.895 37.2418 12.895V11.895ZM29.1012 13.6315C26.6174 14.7847 24.4214 16.3598 22.5153 18.3546L23.2383 19.0454C25.0588 17.1402 27.1527 15.6387 29.5223 14.5385L29.1012 13.6315ZM22.5153 18.3546C20.6089 20.3496 19.1026 22.6542 17.9964 25.2649L18.9171 25.6551C19.9776 23.1524 21.4179 20.9504 23.2383 19.0454L22.5153 18.3546ZM17.9936 25.2716C16.9284 27.8903 16.3968 30.6628 16.3968 33.585H17.3968C17.3968 30.7872 17.9051 28.1431 18.9199 25.6484L17.9936 25.2716ZM16.3968 33.585C16.3968 36.5918 16.9277 39.4079 17.9936 42.0284L18.9199 41.6516C17.9059 39.1587 17.3968 36.4715 17.3968 33.585H16.3968ZM17.9964 42.0351C19.1026 44.6458 20.6089 46.9504 22.5153 48.9454L23.2383 48.2546C21.4179 46.3496 19.9776 44.1476 18.9171 41.6449L17.9964 42.0351ZM22.5153 48.9454C24.4214 50.9402 26.6174 52.5153 29.1012 53.6685L29.5223 52.7615C27.1527 51.6613 25.0588 50.1598 23.2383 48.2546L22.5153 48.9454ZM29.1109 53.6729C31.647 54.7852 34.3591 55.34 37.2418 55.34V54.34C34.4911 54.34 31.9165 53.8114 29.5126 52.7571L29.1109 53.6729ZM37.2418 55.34C39.6807 55.34 41.9927 54.9407 44.1742 54.1393L43.8293 53.2007C41.7641 53.9593 39.5695 54.34 37.2418 54.34V55.34ZM44.1742 54.1393C46.3485 53.3406 48.408 52.1882 50.3525 50.6856L49.741 49.8944C47.8721 51.3385 45.9017 52.4394 43.8293 53.2007L44.1742 54.1393ZM50.3668 50.6741C50.7993 50.3137 51.2009 50.2034 51.5957 50.2642L51.7478 49.2758C51.016 49.1632 50.3342 49.3996 49.7267 49.9059L50.3668 50.6741ZM51.6011 50.265C52.1006 50.3363 52.5214 50.5467 52.8782 50.9036L53.5853 50.1964C53.0755 49.6866 52.4562 49.377 51.7425 49.275L51.6011 50.265ZM52.8782 50.9036C53.2052 51.2305 53.3818 51.6603 53.3818 52.24H54.3818C54.3818 51.433 54.125 50.7362 53.5853 50.1964L52.8782 50.9036ZM53.3818 52.24C53.3818 52.5224 53.3292 52.7801 53.2272 53.018L54.1463 53.412C54.3043 53.0433 54.3818 52.6509 54.3818 52.24H53.3818ZM53.2124 53.0569C53.1533 53.2342 53.0227 53.4598 52.7871 53.7346L53.5464 54.3854C53.8309 54.0535 54.0469 53.7158 54.1611 53.3731L53.2124 53.0569ZM52.8279 53.6923C50.669 55.6819 48.2623 57.095 45.6055 57.9384L45.908 58.8916C48.7112 58.0017 51.2445 56.5114 53.5056 54.4277L52.8279 53.6923ZM45.6124 57.9363C42.9308 58.745 40.1412 59.15 37.2418 59.15V60.15C40.2357 60.15 43.1228 59.7316 45.9011 58.8937L45.6124 57.9363Z" fill="#495EFD"/>
<path d="M44.5865 43.7976C44.1172 43.7976 43.7225 43.6483 43.4025 43.3496C43.1039 43.0296 42.9545 42.635 42.9545 42.1656V34.2936C42.9545 33.0776 42.7305 32.0856 42.2825 31.3176C41.8345 30.5496 41.2265 29.9843 40.4585 29.6216C39.7119 29.2376 38.8479 29.0456 37.8665 29.0456C36.9705 29.0456 36.1599 29.227 35.4345 29.5896C34.7092 29.9523 34.1332 30.443 33.7065 31.0616C33.2799 31.659 33.0665 32.3523 33.0665 33.1416H31.0505C31.0505 31.7976 31.3705 30.603 32.0105 29.5576C32.6719 28.491 33.5679 27.6483 34.6985 27.0296C35.8292 26.411 37.0985 26.1016 38.5065 26.1016C39.9785 26.1016 41.2905 26.4216 42.4425 27.0616C43.6159 27.6803 44.5332 28.5976 45.1945 29.8136C45.8772 31.0296 46.2185 32.523 46.2185 34.2936V42.1656C46.2185 42.635 46.0585 43.0296 45.7385 43.3496C45.4399 43.6483 45.0559 43.7976 44.5865 43.7976ZM31.4345 43.7976C30.9652 43.7976 30.5705 43.6483 30.2505 43.3496C29.9519 43.0296 29.8025 42.635 29.8025 42.1656V27.8936C29.8025 27.403 29.9519 27.0083 30.2505 26.7096C30.5705 26.411 30.9652 26.2616 31.4345 26.2616C31.9252 26.2616 32.3199 26.411 32.6185 26.7096C32.9172 27.0083 33.0665 27.403 33.0665 27.8936V42.1656C33.0665 42.635 32.9172 43.0296 32.6185 43.3496C32.3199 43.6483 31.9252 43.7976 31.4345 43.7976Z" fill="#495EFD"/>
<path d="M43.4025 43.3496L43.037 43.6908L43.0488 43.7034L43.0614 43.7152L43.4025 43.3496ZM42.2825 31.3176L41.8507 31.5696L42.2825 31.3176ZM40.4585 29.6216L40.2299 30.0663L40.2374 30.0701L40.245 30.0737L40.4585 29.6216ZM35.4345 29.5896L35.2109 29.1424L35.4345 29.5896ZM33.7065 31.0616L34.1135 31.3523L34.1181 31.3455L33.7065 31.0616ZM33.0665 33.1416V33.6416H33.5665V33.1416H33.0665ZM31.0505 33.1416H30.5505V33.6416H31.0505V33.1416ZM32.0105 29.5576L31.5856 29.2941L31.5841 29.2965L32.0105 29.5576ZM34.6985 27.0296L34.9385 27.4683L34.6985 27.0296ZM42.4425 27.0616L42.1997 27.4988L42.2093 27.5039L42.4425 27.0616ZM45.1945 29.8136L44.7553 30.0525L44.7586 30.0584L45.1945 29.8136ZM45.7385 43.3496L45.385 42.9961L45.7385 43.3496ZM30.2505 43.3496L29.885 43.6908L29.8968 43.7034L29.9094 43.7152L30.2505 43.3496ZM30.2505 26.7096L29.9094 26.3441L29.9031 26.35L29.897 26.3561L30.2505 26.7096ZM32.6185 43.3496L32.9721 43.7032L32.9782 43.6971L32.9841 43.6908L32.6185 43.3496ZM44.5865 43.2976C44.2338 43.2976 43.964 43.1898 43.7437 42.9841L43.0614 43.7152C43.481 44.1068 44.0006 44.2976 44.5865 44.2976V43.2976ZM43.7681 43.0085C43.5624 42.7881 43.4545 42.5183 43.4545 42.1656H42.4545C42.4545 42.7516 42.6453 43.2711 43.037 43.6908L43.7681 43.0085ZM43.4545 42.1656V34.2936H42.4545V42.1656H43.4545ZM43.4545 34.2936C43.4545 33.0203 43.2205 31.9332 42.7144 31.0657L41.8507 31.5696C42.2406 32.238 42.4545 33.1349 42.4545 34.2936H43.4545ZM42.7144 31.0657C42.2181 30.2148 41.5358 29.5774 40.672 29.1695L40.245 30.0737C40.9173 30.3912 41.451 30.8845 41.8507 31.5696L42.7144 31.0657ZM40.6872 29.177C39.8588 28.7509 38.914 28.5456 37.8665 28.5456V29.5456C38.7818 29.5456 39.565 29.7243 40.2299 30.0663L40.6872 29.177ZM37.8665 28.5456C36.9012 28.5456 36.0127 28.7415 35.2109 29.1424L35.6581 30.0368C36.307 29.7124 37.0399 29.5456 37.8665 29.5456V28.5456ZM35.2109 29.1424C34.4163 29.5397 33.7732 30.0842 33.2949 30.7778L34.1181 31.3455C34.4932 30.8017 35.0021 30.3649 35.6581 30.0368L35.2109 29.1424ZM33.2997 30.771C32.8078 31.4596 32.5665 32.2564 32.5665 33.1416H33.5665C33.5665 32.4482 33.752 31.8583 34.1134 31.3522L33.2997 30.771ZM33.0665 32.6416H31.0505V33.6416H33.0665V32.6416ZM31.5505 33.1416C31.5505 31.8806 31.8497 30.778 32.437 29.8187L31.5841 29.2965C30.8914 30.428 30.5505 31.7147 30.5505 33.1416H31.5505ZM32.4355 29.8211C33.0501 28.8298 33.8815 28.0466 34.9385 27.4683L34.4585 26.591C33.2543 27.2499 32.2937 28.1521 31.5856 29.2942L32.4355 29.8211ZM34.9385 27.4683C35.989 26.8935 37.1745 26.6016 38.5065 26.6016V25.6016C37.0226 25.6016 35.6695 25.9284 34.4585 26.591L34.9385 27.4683ZM38.5065 26.6016C39.9037 26.6016 41.1304 26.9046 42.1997 27.4987L42.6854 26.6245C41.4507 25.9386 40.0534 25.6016 38.5065 25.6016V26.6016ZM42.2093 27.5039C43.2915 28.0745 44.1389 28.9192 44.7553 30.0525L45.6338 29.5747C44.9275 28.2761 43.9402 27.2861 42.6757 26.6193L42.2093 27.5039ZM44.7586 30.0584C45.3894 31.1821 45.7185 32.586 45.7185 34.2936H46.7185C46.7185 32.4599 46.365 30.8772 45.6305 29.5689L44.7586 30.0584ZM45.7185 34.2936V42.1656H46.7185V34.2936H45.7185ZM45.7185 42.1656C45.7185 42.5078 45.6074 42.7737 45.385 42.9961L46.0921 43.7032C46.5097 43.2856 46.7185 42.7621 46.7185 42.1656H45.7185ZM45.385 42.9961C45.1909 43.1901 44.9394 43.2976 44.5865 43.2976V44.2976C45.1723 44.2976 45.6888 44.1064 46.0921 43.7032L45.385 42.9961ZM31.4345 43.2976C31.0818 43.2976 30.812 43.1898 30.5917 42.9841L29.9094 43.7152C30.329 44.1068 30.8486 44.2976 31.4345 44.2976V43.2976ZM30.6161 43.0085C30.4104 42.7881 30.3025 42.5183 30.3025 42.1656H29.3025C29.3025 42.7516 29.4933 43.2711 29.885 43.6908L30.6161 43.0085ZM30.3025 42.1656V27.8936H29.3025V42.1656H30.3025ZM30.3025 27.8936C30.3025 27.5124 30.4144 27.2529 30.6041 27.0632L29.897 26.3561C29.4893 26.7637 29.3025 27.2935 29.3025 27.8936H30.3025ZM30.5917 27.0752C30.812 26.8695 31.0818 26.7616 31.4345 26.7616V25.7616C30.8486 25.7616 30.329 25.9524 29.9094 26.3441L30.5917 27.0752ZM31.4345 26.7616C31.8158 26.7616 32.0753 26.8735 32.265 27.0632L32.9721 26.3561C32.5645 25.9484 32.0346 25.7616 31.4345 25.7616V26.7616ZM32.265 27.0632C32.4547 27.2529 32.5665 27.5124 32.5665 27.8936H33.5665C33.5665 27.2935 33.3797 26.7637 32.9721 26.3561L32.265 27.0632ZM32.5665 27.8936V42.1656H33.5665V27.8936H32.5665ZM32.5665 42.1656C32.5665 42.5183 32.4587 42.7881 32.253 43.0085L32.9841 43.6908C33.3757 43.2711 33.5665 42.7516 33.5665 42.1656H32.5665ZM32.265 42.9961C32.0753 43.1858 31.8158 43.2976 31.4345 43.2976V44.2976C32.0346 44.2976 32.5645 44.1108 32.9721 43.7032L32.265 42.9961Z" fill="#495EFD"/>
<path d="M92.5779 47.03C92.1379 47.03 91.7679 46.89 91.4679 46.61C91.1879 46.31 91.0479 45.94 91.0479 45.5V38.12C91.0479 36.98 90.8379 36.05 90.4179 35.33C89.9979 34.61 89.4279 34.08 88.7079 33.74C88.0079 33.38 87.1979 33.2 86.2779 33.2C85.4379 33.2 84.6779 33.37 83.9979 33.71C83.3179 34.05 82.7779 34.51 82.3779 35.09C81.9779 35.65 81.7779 36.3 81.7779 37.04H79.8879C79.8879 35.78 80.1879 34.66 80.7879 33.68C81.4079 32.68 82.2479 31.89 83.3079 31.31C84.3679 30.73 85.5579 30.44 86.8779 30.44C88.2579 30.44 89.4879 30.74 90.5679 31.34C91.6679 31.92 92.5279 32.78 93.1479 33.92C93.7879 35.06 94.1079 36.46 94.1079 38.12V45.5C94.1079 45.94 93.9579 46.31 93.6579 46.61C93.3779 46.89 93.0179 47.03 92.5779 47.03ZM80.2479 47.03C79.8079 47.03 79.4379 46.89 79.1379 46.61C78.8579 46.31 78.7179 45.94 78.7179 45.5V32.12C78.7179 31.66 78.8579 31.29 79.1379 31.01C79.4379 30.73 79.8079 30.59 80.2479 30.59C80.7079 30.59 81.0779 30.73 81.3579 31.01C81.6379 31.29 81.7779 31.66 81.7779 32.12V45.5C81.7779 45.94 81.6379 46.31 81.3579 46.61C81.0779 46.89 80.7079 47.03 80.2479 47.03ZM106.367 47.12C104.747 47.12 103.317 46.77 102.077 46.07C100.837 45.35 99.8571 44.37 99.1371 43.13C98.4371 41.87 98.0871 40.43 98.0871 38.81C98.0871 37.17 98.4371 35.73 99.1371 34.49C99.8571 33.23 100.837 32.25 102.077 31.55C103.317 30.83 104.747 30.47 106.367 30.47C107.967 30.47 109.387 30.83 110.627 31.55C111.867 32.25 112.837 33.23 113.537 34.49C114.257 35.73 114.617 37.17 114.617 38.81C114.617 40.43 114.267 41.87 113.567 43.13C112.867 44.37 111.897 45.35 110.657 46.07C109.417 46.77 107.987 47.12 106.367 47.12ZM106.367 44.42C107.407 44.42 108.327 44.18 109.127 43.7C109.927 43.22 110.547 42.56 110.987 41.72C111.447 40.88 111.677 39.91 111.677 38.81C111.677 37.71 111.447 36.74 110.987 35.9C110.547 35.04 109.927 34.37 109.127 33.89C108.327 33.41 107.407 33.17 106.367 33.17C105.327 33.17 104.407 33.41 103.607 33.89C102.807 34.37 102.177 35.04 101.717 35.9C101.257 36.74 101.027 37.71 101.027 38.81C101.027 39.91 101.257 40.88 101.717 41.72C102.177 42.56 102.807 43.22 103.607 43.7C104.407 44.18 105.327 44.42 106.367 44.42ZM124.901 47C123.901 47 123.001 46.75 122.201 46.25C121.401 45.73 120.771 45.03 120.311 44.15C119.851 43.27 119.621 42.28 119.621 41.18V26.87C119.621 26.43 119.761 26.07 120.041 25.79C120.321 25.51 120.681 25.37 121.121 25.37C121.561 25.37 121.921 25.51 122.201 25.79C122.481 26.07 122.621 26.43 122.621 26.87V41.18C122.621 41.98 122.841 42.65 123.281 43.19C123.721 43.73 124.261 44 124.901 44H125.921C126.281 44 126.581 44.14 126.821 44.42C127.081 44.7 127.211 45.06 127.211 45.5C127.211 45.94 127.041 46.3 126.701 46.58C126.381 46.86 125.961 47 125.441 47H124.901ZM118.241 33.77C117.821 33.77 117.481 33.65 117.221 33.41C116.961 33.17 116.831 32.87 116.831 32.51C116.831 32.11 116.961 31.79 117.221 31.55C117.481 31.31 117.821 31.19 118.241 31.19H125.171C125.591 31.19 125.931 31.31 126.191 31.55C126.451 31.79 126.581 32.11 126.581 32.51C126.581 32.87 126.451 33.17 126.191 33.41C125.931 33.65 125.591 33.77 125.171 33.77H118.241ZM132.562 47C132.122 47 131.752 46.86 131.452 46.58C131.172 46.28 131.032 45.91 131.032 45.47V32.12C131.032 31.66 131.172 31.29 131.452 31.01C131.752 30.73 132.122 30.59 132.562 30.59C133.022 30.59 133.392 30.73 133.672 31.01C133.952 31.29 134.092 31.66 134.092 32.12V45.47C134.092 45.91 133.952 46.28 133.672 46.58C133.392 46.86 133.022 47 132.562 47ZM132.562 27.92C132.022 27.92 131.552 27.73 131.152 27.35C130.772 26.95 130.582 26.48 130.582 25.94C130.582 25.4 130.772 24.94 131.152 24.56C131.552 24.16 132.022 23.96 132.562 23.96C133.102 23.96 133.562 24.16 133.942 24.56C134.342 24.94 134.542 25.4 134.542 25.94C134.542 26.48 134.342 26.95 133.942 27.35C133.562 27.73 133.102 27.92 132.562 27.92ZM150.345 47.3C148.725 47.3 147.205 47 145.785 46.4C144.385 45.78 143.155 44.93 142.095 43.85C141.055 42.75 140.235 41.47 139.635 40.01C139.055 38.55 138.765 36.97 138.765 35.27C138.765 33.59 139.055 32.03 139.635 30.59C140.235 29.13 141.055 27.86 142.095 26.78C143.155 25.68 144.385 24.82 145.785 24.2C147.185 23.58 148.705 23.27 150.345 23.27C151.885 23.27 153.205 23.47 154.305 23.87C155.425 24.27 156.545 24.93 157.665 25.85C157.825 25.97 157.945 26.1 158.025 26.24C158.125 26.36 158.185 26.49 158.205 26.63C158.245 26.75 158.265 26.9 158.265 27.08C158.265 27.46 158.125 27.78 157.845 28.04C157.585 28.28 157.265 28.42 156.885 28.46C156.505 28.48 156.135 28.35 155.775 28.07C155.035 27.43 154.265 26.94 153.465 26.6C152.685 26.26 151.645 26.09 150.345 26.09C149.165 26.09 148.055 26.33 147.015 26.81C145.975 27.29 145.055 27.95 144.255 28.79C143.475 29.63 142.865 30.61 142.425 31.73C141.985 32.83 141.765 34.01 141.765 35.27C141.765 36.55 141.985 37.75 142.425 38.87C142.865 39.97 143.475 40.94 144.255 41.78C145.055 42.62 145.975 43.28 147.015 43.76C148.055 44.22 149.165 44.45 150.345 44.45C151.365 44.45 152.325 44.28 153.225 43.94C154.145 43.58 155.025 43.09 155.865 42.47C156.225 42.21 156.575 42.1 156.915 42.14C157.275 42.16 157.575 42.3 157.815 42.56C158.055 42.8 158.175 43.14 158.175 43.58C158.175 43.78 158.135 43.98 158.055 44.18C157.975 44.36 157.855 44.53 157.695 44.69C156.615 45.55 155.455 46.2 154.215 46.64C152.995 47.08 151.705 47.3 150.345 47.3ZM164.455 47C164.015 47 163.645 46.86 163.345 46.58C163.065 46.28 162.925 45.91 162.925 45.47V32.12C162.925 31.66 163.065 31.29 163.345 31.01C163.645 30.73 164.015 30.59 164.455 30.59C164.915 30.59 165.285 30.73 165.565 31.01C165.845 31.29 165.985 31.66 165.985 32.12V45.47C165.985 45.91 165.845 46.28 165.565 46.58C165.285 46.86 164.915 47 164.455 47ZM164.455 27.92C163.915 27.92 163.445 27.73 163.045 27.35C162.665 26.95 162.475 26.48 162.475 25.94C162.475 25.4 162.665 24.94 163.045 24.56C163.445 24.16 163.915 23.96 164.455 23.96C164.995 23.96 165.455 24.16 165.835 24.56C166.235 24.94 166.435 25.4 166.435 25.94C166.435 26.48 166.235 26.95 165.835 27.35C165.455 27.73 164.995 27.92 164.455 27.92ZM178.278 47.12C176.818 47.12 175.508 46.76 174.348 46.04C173.188 45.3 172.268 44.31 171.588 43.07C170.928 41.81 170.598 40.39 170.598 38.81C170.598 37.23 170.958 35.81 171.678 34.55C172.418 33.29 173.408 32.3 174.648 31.58C175.908 30.84 177.318 30.47 178.878 30.47C180.438 30.47 181.838 30.84 183.078 31.58C184.318 32.3 185.298 33.29 186.018 34.55C186.758 35.81 187.128 37.23 187.128 38.81H185.958C185.958 40.39 185.618 41.81 184.938 43.07C184.278 44.31 183.368 45.3 182.208 46.04C181.048 46.76 179.738 47.12 178.278 47.12ZM178.878 44.42C179.898 44.42 180.808 44.18 181.608 43.7C182.408 43.2 183.038 42.53 183.498 41.69C183.958 40.83 184.188 39.87 184.188 38.81C184.188 37.73 183.958 36.77 183.498 35.93C183.038 35.07 182.408 34.4 181.608 33.92C180.808 33.42 179.898 33.17 178.878 33.17C177.878 33.17 176.968 33.42 176.148 33.92C175.348 34.4 174.708 35.07 174.228 35.93C173.768 36.77 173.538 37.73 173.538 38.81C173.538 39.87 173.768 40.83 174.228 41.69C174.708 42.53 175.348 43.2 176.148 43.7C176.968 44.18 177.878 44.42 178.878 44.42ZM185.598 47.03C185.158 47.03 184.788 46.89 184.488 46.61C184.208 46.31 184.068 45.94 184.068 45.5V40.91L184.638 37.73L187.128 38.81V45.5C187.128 45.94 186.978 46.31 186.678 46.61C186.398 46.89 186.038 47.03 185.598 47.03Z" fill="#232173"/>
</svg>
